<?xml version="1.0" standalone="no"?>
<!DOCTYPE svg PUBLIC "-//W3C//DTD SVG 20010904//EN"
 "http://www.w3.org/TR/2001/REC-SVG-20010904/DTD/svg10.dtd">
<svg version="1.0" xmlns="http://www.w3.org/2000/svg"
 width="626.000000pt" height="417.000000pt" viewBox="0 0 626.000000 417.000000"
 preserveAspectRatio="xMidYMid meet">

<g transform="translate(0.000000,417.000000) scale(0.100000,-0.100000)"
fill="#000000" stroke="none">
<path d="M5162 4131 c7 -29 16 -41 32 -43 18 -3 22 -12 30 -78 9 -71 22 -100
45 -100 6 0 11 -11 11 -24 0 -13 6 -27 13 -29 7 -3 5 -6 -5 -6 -14 -1 -18 -10
-18 -41 0 -22 4 -40 10 -40 5 0 7 -7 4 -15 -7 -18 7 -20 23 -4 6 6 17 9 25 7
8 -3 0 -11 -19 -22 -49 -25 -40 -38 10 -16 27 13 65 20 107 20 75 1 146 24
187 60 25 22 38 25 116 27 48 1 103 7 122 12 21 6 33 6 30 0 -4 -5 -15 -9 -25
-9 -10 0 -22 -4 -25 -10 -3 -5 -22 -10 -41 -10 -19 0 -34 -4 -34 -9 0 -10 50
-5 110 10 43 11 50 11 50 1 0 -4 -27 -14 -60 -20 -33 -7 -93 -24 -133 -37 -39
-14 -119 -34 -177 -45 -58 -12 -114 -27 -125 -34 -11 -7 -48 -19 -82 -26 -34
-8 -65 -20 -68 -28 -3 -8 0 -10 6 -6 21 12 79 22 79 13 0 -5 -9 -9 -20 -9 -11
0 -23 -7 -26 -15 -4 -8 -12 -15 -20 -15 -9 0 -14 -11 -14 -30 0 -17 -5 -30
-12 -30 -9 0 -8 -4 2 -10 10 -6 11 -10 3 -10 -8 0 -13 -13 -13 -30 0 -20 -5
-30 -15 -30 -8 0 -15 -9 -15 -20 0 -11 7 -20 15 -20 8 0 15 -9 15 -20 0 -22 9
-24 100 -21 139 5 300 57 373 120 40 35 142 101 157 101 5 0 10 4 10 9 0 6 9
8 20 6 11 -2 20 -1 20 3 0 12 91 45 119 44 14 0 51 -3 81 -5 42 -4 49 -3 30 5
-13 5 -35 6 -47 3 -14 -3 -23 -1 -23 6 0 10 97 6 143 -7 16 -5 17 12 17 255
l0 261 -554 0 -554 0 10 -39z m648 -276 c11 -13 8 -15 -21 -15 -31 0 -32 1
-13 15 10 8 20 15 20 15 1 0 7 -7 14 -15z"/>
<path d="M6056 3624 c-9 -8 -16 -18 -16 -22 0 -3 5 -1 12 6 7 7 20 12 31 12
10 0 15 5 12 10 -9 14 -21 12 -39 -6z"/>
<path d="M6110 3616 c0 -2 7 -7 16 -10 8 -3 12 -2 9 4 -6 10 -25 14 -25 6z"/>
<path d="M6150 3598 c0 -5 18 -8 40 -8 22 0 40 2 40 4 0 2 -18 6 -40 8 -22 2
-40 0 -40 -4z"/>
<path d="M5953 3585 c0 -8 4 -12 9 -9 5 3 6 10 3 15 -9 13 -12 11 -12 -6z"/>
<path d="M6002 3579 c2 -7 -8 -18 -22 -26 -16 -8 -19 -13 -9 -13 22 0 54 36
39 45 -6 3 -9 1 -8 -6z"/>
<path d="M5920 3560 c8 -5 20 -10 25 -10 6 0 3 5 -5 10 -8 5 -19 10 -25 10 -5
0 -3 -5 5 -10z"/>
<path d="M5216 3345 c-30 -22 -16 -24 29 -4 34 15 36 18 15 18 -14 0 -34 -6
-44 -14z"/>
<path d="M5155 3310 c3 -5 12 -7 20 -3 21 7 19 13 -6 13 -11 0 -18 -4 -14 -10z"/>
<path d="M6180 3267 c-41 -17 -78 -36 -82 -41 -4 -6 -8 -8 -8 -4 0 3 -37 -6
-82 -22 -46 -15 -98 -31 -116 -35 -26 -5 -31 -10 -23 -18 8 -8 14 -8 19 -2 9
12 42 13 60 1 7 -4 16 -5 19 -2 4 3 1 6 -6 6 -7 0 -9 5 -6 10 4 6 12 7 18 3 6
-4 23 -7 37 -8 14 0 36 -6 50 -13 22 -12 23 -11 7 1 -17 14 -16 15 3 20 11 3
20 1 20 -4 0 -5 38 -9 85 -9 l85 0 0 75 c0 41 -1 75 -2 74 -2 0 -37 -15 -78
-32z m-10 -47 c0 -5 -5 -10 -11 -10 -5 0 -7 5 -4 10 3 6 8 10 11 10 2 0 4 -4
4 -10z m-150 -35 c0 -2 -10 -10 -22 -16 -21 -11 -22 -11 -9 4 13 16 31 23 31
12z"/>
<path d="M5390 3190 c-19 -3 -48 -14 -65 -23 l-30 -16 28 -1 c15 0 27 -5 27
-11 0 -5 -10 -9 -22 -7 -18 2 -22 -1 -20 -16 3 -16 1 -18 -10 -8 -12 9 -15 9
-15 -3 0 -20 19 -19 48 3 13 11 56 28 94 40 73 22 144 61 78 43 -17 -5 -34 -6
-38 -3 -9 9 -36 10 -75 2z m50 -16 c0 -8 -5 -12 -10 -9 -6 4 -8 11 -5 16 9 14
15 11 15 -7z m-48 -5 c-13 -5 -20 -13 -17 -19 3 -5 1 -10 -4 -10 -6 0 -11 6
-11 14 0 15 15 24 40 25 8 0 5 -4 -8 -10z m25 -15 c-3 -3 -12 -4 -19 -1 -8 3
-5 6 6 6 11 1 17 -2 13 -5z"/>
<path d="M5805 3127 c-44 -24 -57 -48 -22 -40 16 3 18 2 9 -5 -11 -7 -10 -11
4 -16 9 -3 19 -4 22 -1 3 3 1 5 -5 5 -5 0 -10 7 -10 15 0 8 7 15 15 15 8 0 12
6 9 14 -4 10 2 16 16 18 12 2 18 6 12 10 -5 3 -28 -4 -50 -15z m5 -17 c-8 -5
-19 -10 -25 -10 -5 0 -3 5 5 10 8 5 20 10 25 10 6 0 3 -5 -5 -10z"/>
<path d="M5915 3140 c-3 -5 1 -10 10 -10 9 0 13 5 10 10 -3 6 -8 10 -10 10 -2
0 -7 -4 -10 -10z"/>
<path d="M5258 3118 c2 -10 6 -18 7 -18 1 0 5 8 7 18 3 11 0 19 -7 19 -7 0
-10 -8 -7 -19z"/>
<path d="M5128 3123 c7 -3 16 -2 19 1 4 3 -2 6 -13 5 -11 0 -14 -3 -6 -6z"/>
<path d="M5202 3110 c0 -14 2 -19 5 -12 2 6 2 18 0 25 -3 6 -5 1 -5 -13z"/>
<path d="M5231 3114 c0 -11 3 -14 6 -6 3 7 2 16 -1 19 -3 4 -6 -2 -5 -13z"/>
<path d="M5855 3110 c-2 -3 29 -6 68 -8 51 -1 67 1 56 8 -16 10 -118 10 -124
0z"/>
<path d="M6014 3111 c8 -12 233 -13 241 -1 4 7 -33 10 -119 9 -70 0 -124 -4
-122 -8z"/>
<path d="M5145 3100 c-13 -6 -15 -9 -5 -9 8 0 22 4 30 9 18 12 2 12 -25 0z"/>
<path d="M5704 3075 c-25 -19 -14 -19 22 0 16 8 22 15 13 15 -8 0 -24 -7 -35
-15z"/>
<path d="M5285 3070 c9 -15 -43 -24 -60 -10 -10 8 -15 9 -15 1 0 -16 45 -24
69 -11 22 11 28 30 10 30 -5 0 -7 -4 -4 -10z"/>
<path d="M5648 3058 c-16 -5 -28 -13 -28 -18 0 -5 14 -2 30 6 17 9 30 17 30
20 0 2 -1 4 -2 3 -2 0 -15 -5 -30 -11z"/>
<path d="M5120 3046 c0 -2 8 -10 18 -17 15 -13 16 -12 3 4 -13 16 -21 21 -21
13z"/>
<path d="M5558 3023 c7 -3 16 -2 19 1 4 3 -2 6 -13 5 -11 0 -14 -3 -6 -6z"/>
<path d="M4928 2953 c7 -3 16 -2 19 1 4 3 -2 6 -13 5 -11 0 -14 -3 -6 -6z"/>
<path d="M5968 2938 c8 -8 17 -8 34 0 22 10 21 11 -11 11 -27 1 -32 -2 -23
-11z"/>
<path d="M2278 2923 c7 -3 16 -2 19 1 4 3 -2 6 -13 5 -11 0 -14 -3 -6 -6z"/>
<path d="M6200 2720 c-26 -11 -36 -19 -25 -19 11 0 36 8 55 19 45 24 28 24
-30 0z"/>
<path d="M1753 2528 c-11 -13 -26 -32 -34 -44 -8 -12 -59 -70 -114 -129 -122
-132 -80 -85 -341 -375 -121 -135 -244 -271 -273 -302 l-52 -57 63 5 c35 3
104 14 154 25 l91 21 49 84 c33 56 55 84 67 84 17 0 15 -7 -14 -57 -60 -107
-89 -165 -89 -180 0 -8 -9 -22 -20 -31 -27 -23 -190 -313 -190 -338 0 -7 27
22 132 140 15 17 28 35 28 40 0 4 43 -33 95 -83 66 -63 103 -91 120 -91 71 0
364 253 488 421 70 95 142 216 150 250 8 31 4 36 -103 130 -47 41 -88 78 -92
84 -4 5 2 18 13 28 23 21 23 24 4 81 -9 25 -26 94 -39 153 -38 171 -50 188
-93 141z"/>
<path d="M5468 2543 c7 -3 16 -2 19 1 4 3 -2 6 -13 5 -11 0 -14 -3 -6 -6z"/>
<path d="M4084 2479 c-7 -12 -5 -16 160 -263 80 -120 146 -221 146 -223 0 -2
-27 -59 -60 -125 -69 -139 -69 -134 20 -231 97 -106 237 -189 428 -254 86 -29
123 -37 186 -37 l80 -1 60 117 c34 65 66 118 71 118 6 0 36 -11 69 -25 l58
-24 -6 25 c-3 13 -9 35 -12 49 -9 36 11 56 43 44 35 -13 59 -44 85 -111 16
-40 28 -58 40 -58 15 0 18 10 18 67 0 62 -3 73 -37 123 -21 30 -41 57 -45 58
-5 2 -8 8 -8 13 0 11 -158 242 -191 281 -15 16 -67 43 -139 72 -63 25 -153 62
-200 82 -47 20 -95 37 -107 38 -11 1 -19 4 -17 7 2 4 -2 9 -9 12 -69 28 -402
163 -437 177 -25 10 -78 31 -118 48 -39 16 -75 26 -78 21z"/>
<path d="M2978 1857 c-31 -24 -37 -49 -22 -90 19 -54 18 -61 -8 -43 -31 22
-33 21 -48 -26 -8 -24 -27 -72 -42 -106 -30 -67 -35 -97 -18 -107 24 -15 3
-37 -97 -105 -60 -39 -111 -78 -116 -85 -17 -30 77 -245 170 -389 90 -141 167
-230 287 -335 83 -72 86 -71 234 37 41 29 75 52 76 50 1 -2 31 -47 66 -100 62
-94 90 -123 70 -76 -5 13 -23 61 -40 108 -61 165 -82 215 -100 235 -10 11 -18
31 -18 45 0 14 -18 71 -41 128 -23 56 -41 104 -41 106 0 2 8 2 19 -1 12 -3 30
-35 55 -96 l36 -92 68 -24 c85 -30 204 -62 215 -58 5 1 -12 34 -39 72 -26 39
-93 138 -149 220 -56 83 -146 215 -200 295 -55 80 -145 214 -200 297 -87 130
-104 151 -117 140z m51 -226 c41 -78 61 -160 61 -252 0 -43 4 -89 10 -103 13
-35 -3 -33 -34 4 -27 32 -28 38 -46 199 -6 57 -19 130 -29 161 -24 75 -5 71
38 -9z"/>
<path d="M1145 1551 c-19 -8 -19 -8 3 -20 12 -6 22 -10 22 -7 0 2 3 11 6 20 7
17 0 19 -31 7z"/>
<path d="M1021 1459 l-34 -40 33 -34 c19 -19 37 -35 41 -35 4 0 21 25 37 55
l30 55 -25 20 c-34 27 -42 25 -82 -21z"/>
<path d="M992 1278 c14 -43 14 -43 28 -17 11 19 10 25 -6 36 -28 21 -34 16
-22 -19z"/>
<path d="M183 929 l-183 -110 0 -410 0 -409 289 0 289 0 62 47 c82 61 86 73
65 170 -36 167 -163 583 -177 583 -5 0 -36 -20 -68 -45 -32 -25 -61 -45 -64
-45 -9 0 -18 66 -24 198 l-7 130 -182 -109z"/>
<path d="M3450 794 c0 -5 5 -16 10 -24 8 -13 11 -13 27 3 9 9 12 17 6 17 -6 0
-18 3 -27 6 -9 3 -16 2 -16 -2z"/>
<path d="M1688 459 c-130 -151 -270 -312 -312 -359 -41 -47 -76 -88 -76 -92 0
-5 256 -8 570 -8 314 0 570 2 570 5 0 11 -54 134 -96 218 -65 131 -175 291
-188 276 -14 -16 -96 -144 -96 -151 0 -4 -4 -8 -9 -8 -13 0 -70 160 -100 282
l-27 110 -236 -273z"/>
<path d="M3526 715 c-10 -8 -23 -16 -28 -17 -7 -3 25 -112 38 -127 1 -1 20 10
41 25 21 16 40 29 42 31 5 3 -62 103 -69 103 -3 -1 -14 -7 -24 -15z"/>
<path d="M6205 656 c-51 -22 -200 -182 -344 -371 -136 -178 -201 -268 -201
-279 0 -3 135 -6 300 -6 l300 0 0 324 c0 354 0 355 -55 332z"/>
<path d="M3583 522 c-24 -4 -27 -14 -14 -47 7 -18 10 -17 25 13 20 38 19 39
-11 34z"/>
<path d="M4176 138 c-3 -18 -10 -57 -15 -85 l-8 -53 120 0 c67 0 117 4 112 8
-10 9 -170 137 -192 154 -8 7 -13 0 -17 -24z"/>
</g>
</svg>
